<svg width="20" height="20" viewBox="0 0 20 20" fill="none" xmlns="http://www.w3.org/2000/svg">
<g clip-path="url(#clip0_304_886)">
<path d="M19.7612 9.48235C19.7608 8.91371 19.5926 8.35787 19.2778 7.88462C18.963 7.41138 18.5156 7.04181 17.9918 6.82231C17.6575 4.91127 16.661 3.17949 15.1776 1.93156C13.6941 0.68364 11.8188 -0.000488281 9.88146 -0.000488281C7.94409 -0.000488281 6.06877 0.68364 4.58535 1.93156C3.10194 3.17949 2.10544 4.91127 1.77114 6.82231C1.17336 7.07416 0.677889 7.52056 0.364836 8.08933C0.0517824 8.65811 -0.0605493 9.316 0.0460052 9.95662C0.15256 10.5972 0.471771 11.1831 0.952021 11.6196C1.43227 12.056 2.04548 12.3175 2.6925 12.3617C3.11777 13.2655 3.69452 14.0896 4.39773 14.7983C3.36733 15.925 2.71341 17.3454 2.527 18.8617C2.51351 18.9692 2.52129 19.0783 2.54991 19.1828C2.57853 19.2872 2.62742 19.385 2.69379 19.4705C2.76017 19.5561 2.84272 19.6277 2.93673 19.6812C3.03074 19.7348 3.13437 19.7693 3.2417 19.7828C3.27558 19.7869 3.30967 19.7891 3.3438 19.7894C3.54418 19.7891 3.73761 19.7157 3.88782 19.5829C4.03803 19.4501 4.13472 19.267 4.15977 19.0679C4.30905 17.8724 4.83215 16.7548 5.65421 15.8752C6.88034 16.7815 8.35696 17.2848 9.88064 17.3157C11.3998 17.2845 12.8721 16.7834 14.0955 15.8809C14.914 16.7591 15.435 17.8735 15.5842 19.0654C15.6091 19.2646 15.7057 19.448 15.8559 19.5809C16.0061 19.7139 16.1997 19.7875 16.4002 19.7877C16.4346 19.7875 16.469 19.7853 16.5031 19.7811C16.7197 19.7539 16.9167 19.6417 17.0507 19.4692C17.1847 19.2966 17.2448 19.0778 17.2178 18.8609C17.0327 17.3484 16.3821 15.9311 15.3561 14.8057C16.0632 14.0948 16.6431 13.2676 17.0704 12.3601C17.7997 12.3115 18.4834 11.9873 18.983 11.453C19.4826 10.9187 19.7608 10.2143 19.7612 9.48235ZM16.6719 10.6969C16.4798 10.6617 16.2815 10.6964 16.1129 10.7949C15.9442 10.8933 15.8162 11.049 15.7522 11.2337C14.998 13.3759 12.4578 15.6666 9.88064 15.6666C7.30345 15.6666 4.76331 13.3743 4.00909 11.2321C3.9449 11.0475 3.81693 10.8919 3.64828 10.7935C3.47963 10.695 3.28141 10.6602 3.08937 10.6953C3.02095 10.7087 2.95157 10.7167 2.88188 10.7192C2.57623 10.7155 2.28279 10.5985 2.05832 10.3907C1.83385 10.1829 1.69429 9.89919 1.66663 9.59434C1.63897 9.28948 1.72519 8.98519 1.9086 8.74031C2.09201 8.49542 2.35958 8.32735 2.65957 8.26859C2.83463 8.23681 2.9947 8.1491 3.11582 8.01859C3.23694 7.88808 3.31259 7.72179 3.33145 7.54463C3.44141 6.49027 3.80473 5.47827 4.39034 4.59516C4.97594 3.71205 5.76641 2.9841 6.69414 2.47357C6.55932 2.99808 6.55311 3.54744 6.67603 4.07487C6.84343 4.77236 7.23334 5.39618 7.78666 5.85177C8.33998 6.30736 9.02653 6.56988 9.74225 6.59952C10.458 6.62917 11.1638 6.42433 11.7528 6.01606C12.3418 5.60779 12.7818 5.01835 13.0062 4.33708C13.0428 4.21606 13.0504 4.08812 13.0284 3.9636C13.0065 3.83908 12.9556 3.72149 12.8798 3.62033C12.804 3.51918 12.7056 3.4373 12.5924 3.38133C12.4791 3.32535 12.3544 3.29685 12.2281 3.29813H12.1038C11.9523 3.3031 11.8064 3.3562 11.6871 3.44974C11.5678 3.54327 11.4813 3.6724 11.4401 3.81843C11.3444 4.10671 11.171 4.36291 10.9392 4.55876C10.7073 4.75462 10.4258 4.88253 10.126 4.92837C9.82608 4.97421 9.51938 4.93621 9.23969 4.81856C8.96001 4.7009 8.71821 4.50817 8.54098 4.26161C8.36375 4.01506 8.25796 3.72428 8.2353 3.42133C8.21264 3.11839 8.27398 2.81506 8.41255 2.54482C8.55112 2.27457 8.76154 2.04791 9.0206 1.88984C9.27965 1.73177 9.57728 1.64843 9.88064 1.64901C11.5075 1.64511 13.0779 2.24591 14.2878 3.33506C15.4977 4.42422 16.261 5.92423 16.4298 7.54463C16.4487 7.72179 16.5243 7.88808 16.6454 8.01859C16.7666 8.1491 16.9266 8.23681 17.1017 8.26859C17.4017 8.32735 17.6693 8.49542 17.8527 8.74031C18.0361 8.98519 18.1223 9.28948 18.0946 9.59434C18.067 9.89919 17.9274 10.1829 17.703 10.3907C17.4785 10.5985 17.185 10.7155 16.8794 10.7192C16.8097 10.7173 16.7404 10.7098 16.6719 10.6969Z" fill="white"/>
<path d="M7.82199 10.7193C8.5041 10.7193 9.05706 10.1655 9.05706 9.48245C9.05706 8.79936 8.5041 8.24561 7.82199 8.24561C7.13988 8.24561 6.58691 8.79936 6.58691 9.48245C6.58691 10.1655 7.13988 10.7193 7.82199 10.7193Z" fill="white"/>
<path d="M11.9392 10.7193C12.6213 10.7193 13.1743 10.1655 13.1743 9.48245C13.1743 8.79936 12.6213 8.24561 11.9392 8.24561C11.2571 8.24561 10.7041 8.79936 10.7041 9.48245C10.7041 10.1655 11.2571 10.7193 11.9392 10.7193Z" fill="white"/>
</g>
<defs>
<clipPath id="clip0_304_886">
<rect width="19.7612" height="19.7895" fill="white"/>
</clipPath>
</defs>
</svg>
