<svg width="20" height="20" viewBox="0 0 20 20" fill="none" xmlns="http://www.w3.org/2000/svg">
<g clip-path="url(#clip0_304_880)">
<path d="M15.6443 18.9649C15.6443 19.1836 15.5575 19.3934 15.4031 19.548C15.2487 19.7026 15.0393 19.7895 14.8209 19.7895H0.823383C0.605008 19.7895 0.395578 19.7026 0.241163 19.548C0.0867491 19.3934 0 19.1836 0 18.9649C0 18.7462 0.0867491 18.5365 0.241163 18.3819C0.395578 18.2272 0.605008 18.1404 0.823383 18.1404H14.8209C15.0393 18.1404 15.2487 18.2272 15.4031 18.3819C15.5575 18.5365 15.6443 18.7462 15.6443 18.9649ZM19.7612 6.59651C19.7612 8.88385 17.9621 11.5439 15.6443 11.5439H14.317L14.07 13.0454C13.9123 14.0099 13.4166 14.8866 12.6718 15.5181C11.9269 16.1497 10.9817 16.4947 10.0058 16.4913H5.64182C4.66644 16.4939 3.72201 16.1485 2.97784 15.5171C2.23368 14.8856 1.73843 14.0094 1.5809 13.0454L0.0461095 3.84001C-0.0324299 3.36766 -0.00732171 2.88384 0.119689 2.42219C0.2467 1.96054 0.472568 1.53212 0.781595 1.1667C1.09062 0.801287 1.4754 0.507638 1.90919 0.306165C2.34297 0.104691 2.81536 0.000224295 3.29353 2.37847e-05H12.3507C12.7831 -0.00162693 13.2114 0.0826609 13.611 0.248003C14.0105 0.413345 14.3733 0.656452 14.6784 0.963238C14.9834 1.27002 15.2246 1.63438 15.388 2.03521C15.5514 2.43603 15.6338 2.86534 15.6303 3.29827H15.6443C18.2223 3.29827 19.7612 4.53511 19.7612 6.59651ZM13.9745 3.56955C14.0138 3.33334 14.0013 3.09139 13.9378 2.86052C13.8743 2.62964 13.7614 2.41538 13.6069 2.23262C13.4524 2.04986 13.26 1.903 13.043 1.80224C12.8261 1.70148 12.5899 1.64924 12.3507 1.64915H3.29353C3.05449 1.64926 2.81833 1.70148 2.60148 1.80219C2.38462 1.90291 2.19225 2.04969 2.03774 2.23235C1.88324 2.41501 1.77029 2.62917 1.70676 2.85995C1.64322 3.09072 1.63062 3.33258 1.66982 3.56873L3.20214 12.775C3.29682 13.3532 3.594 13.8788 4.04044 14.2576C4.48688 14.6364 5.0534 14.8436 5.63853 14.8421H10.0025C10.5876 14.8436 11.1541 14.6364 11.6005 14.2576C12.047 13.8788 12.3442 13.3532 12.4388 12.775L13.9745 3.56955ZM18.1144 6.59651C18.1144 6.18423 18.1144 4.94739 15.6443 4.94739H15.4146L14.5912 9.89476H15.6443C16.9164 9.89476 18.1144 8.0362 18.1144 6.59651Z" fill="white"/>
</g>
<defs>
<clipPath id="clip0_304_880">
<rect width="19.7612" height="19.7895" fill="white"/>
</clipPath>
</defs>
</svg>
